<svg width="710" height="95" viewBox="0 0 710 95" fill="none" xmlns="http://www.w3.org/2000/svg">
<path d="M106.312 2V93H89.125V2H106.312ZM160.938 2L124.438 46.375L103.562 68.6875L100.5 52L115 33.1875L139.875 2H160.938ZM141.812 93L113.5 50.375L125.812 39.25L162.25 93H141.812Z" fill="#42C3A7"/>
<path d="M640 2H673.062C679.979 2 685.917 3.04167 690.875 5.125C695.833 7.20833 699.646 10.2917 702.312 14.375C704.979 18.4583 706.312 23.4792 706.312 29.4375C706.312 34.1458 705.479 38.2292 703.812 41.6875C702.146 45.1458 699.792 48.0417 696.75 50.375C693.75 52.7083 690.208 54.5417 686.125 55.875L680.75 58.625H651.562L651.438 45.0625H673.25C676.792 45.0625 679.729 44.4375 682.062 43.1875C684.396 41.9375 686.146 40.2083 687.312 38C688.521 35.7917 689.125 33.2708 689.125 30.4375C689.125 27.3958 688.542 24.7708 687.375 22.5625C686.208 20.3125 684.438 18.5833 682.062 17.375C679.688 16.1667 676.688 15.5625 673.062 15.5625H657.188V93H640V2ZM691.375 93L670.312 52.25L688.5 52.1875L709.812 92.125V93H691.375Z" fill="#42C3A7"/>
<path d="M333.375 79.5V93H285V79.5H333.375ZM290.25 2V93H273.062V2H290.25ZM327.062 39.5625V52.75H285V39.5625H327.062ZM333.188 2V15.5625H285V2H333.188Z" fill="#42C3A7"/>
<path d="M392.125 15.8125L366.188 93H348L382 2H393.625L392.125 15.8125ZM413.812 93L387.75 15.8125L386.188 2H397.875L432.062 93H413.812ZM412.625 59.1875V72.75H363.812V59.1875H412.625Z" fill="#42C3A7"/>
<path d="M490.875 2V93H473.75V2H490.875ZM519.125 2V15.5625H445.812V2H519.125Z" fill="#42C3A7"/>
<path d="M614.75 45.1875V49.875C614.75 56.75 613.833 62.9375 612 68.4375C610.167 73.8958 607.562 78.5417 604.188 82.375C600.812 86.2083 596.792 89.1458 592.125 91.1875C587.458 93.2292 582.271 94.25 576.562 94.25C570.938 94.25 565.771 93.2292 561.062 91.1875C556.396 89.1458 552.354 86.2083 548.938 82.375C545.521 78.5417 542.875 73.8958 541 68.4375C539.125 62.9375 538.188 56.75 538.188 49.875V45.1875C538.188 38.2708 539.125 32.0833 541 26.625C542.875 21.1667 545.5 16.5208 548.875 12.6875C552.25 8.8125 556.271 5.85417 560.938 3.8125C565.646 1.77083 570.812 0.75 576.438 0.75C582.146 0.75 587.333 1.77083 592 3.8125C596.667 5.85417 600.688 8.8125 604.062 12.6875C607.479 16.5208 610.104 21.1667 611.938 26.625C613.812 32.0833 614.75 38.2708 614.75 45.1875ZM597.375 49.875V45.0625C597.375 40.1042 596.917 35.75 596 32C595.083 28.2083 593.729 25.0208 591.938 22.4375C590.146 19.8542 587.938 17.9167 585.312 16.625C582.688 15.2917 579.729 14.625 576.438 14.625C573.104 14.625 570.146 15.2917 567.562 16.625C565.021 17.9167 562.854 19.8542 561.062 22.4375C559.271 25.0208 557.896 28.2083 556.938 32C556.021 35.75 555.562 40.1042 555.562 45.0625V49.875C555.562 54.7917 556.021 59.1458 556.938 62.9375C557.896 66.7292 559.271 69.9375 561.062 72.5625C562.896 75.1458 565.104 77.1042 567.688 78.4375C570.271 79.7708 573.229 80.4375 576.562 80.4375C579.896 80.4375 582.854 79.7708 585.438 78.4375C588.021 77.1042 590.188 75.1458 591.938 72.5625C593.729 69.9375 595.083 66.7292 596 62.9375C596.917 59.1458 597.375 54.7917 597.375 49.875Z" fill="#42C3A7"/>
<path d="M181 2H214.062C220.979 2 226.917 3.04167 231.875 5.125C236.833 7.20833 240.646 10.2917 243.312 14.375C245.979 18.4583 247.312 23.4792 247.312 29.4375C247.312 34.1458 246.479 38.2292 244.812 41.6875C243.146 45.1458 240.792 48.0417 237.75 50.375C234.75 52.7083 231.208 54.5417 227.125 55.875L221.75 58.625H192.562L192.438 45.0625H214.25C217.792 45.0625 220.729 44.4375 223.062 43.1875C225.396 41.9375 227.146 40.2083 228.312 38C229.521 35.7917 230.125 33.2708 230.125 30.4375C230.125 27.3958 229.542 24.7708 228.375 22.5625C227.208 20.3125 225.438 18.5833 223.062 17.375C220.688 16.1667 217.688 15.5625 214.062 15.5625H198.188V93H181V2ZM232.375 93L211.312 52.25L229.5 52.1875L250.812 92.125V93H232.375Z" fill="#42C3A7"/>
<path d="M66 49C66 67.2254 51.2254 82 33 82C14.7746 82 0 67.2254 0 49C0 30.7746 14.7746 16 33 16C51.2254 16 66 30.7746 66 49Z" fill="url(#paint0_linear_102_64)"/>
<defs>
<linearGradient id="paint0_linear_102_64" x1="107.5" y1="-33" x2="-25" y2="92.5" gradientUnits="userSpaceOnUse">
<stop stop-color="#00FFC8"/>
<stop offset="1" stop-color="#018568" stop-opacity="0"/>
</linearGradient>
</defs>
</svg>
